# xmcd
#
# Track frame offsets: 
#        150
#        21034
#        43894
#        65788
#        90050
#        116079
#        130930
#        147513
#        160389
#        177805
#        197322
#
# Disc length: 2883 seconds
#
# Revision: 0
# Processed by: cddbd v1.5.2PL0 Copyright (c) Steve Scherf et al.
# Submitted via: ExactAudioCopyFreeDBPlugin 1.0
#
DISCID=940b410b
DTITLE=Mike Westcott - Justice Road
DYEAR=2012
DGENRE=Blues Rock
TTITLE0=Erase Time
TTITLE1=Shoot Me
TTITLE2=Heaven Called
TTITLE3=Back Again
TTITLE4=Moose Knuckles
TTITLE5=The Hammer
TTITLE6=Justice Road
TTITLE7=Sittin' On The Porch
TTITLE8=Reflections
TTITLE9=Wanna Do
TTITLE10=Grunt
EXTD=
EXTT0=
EXTT1=
EXTT2=
EXTT3=
EXTT4=
EXTT5=
EXTT6=
EXTT7=
EXTT8=
EXTT9=
EXTT10=
PLAYORDER=
